<svg xmlns="http://www.w3.org/2000/svg" width="200" height="200" preserveAspectRatio="xMidYMid meet" viewBox="9.5559289547964e-7 -4.806818378527483e-15 300 73.55877685546875" overflow="visible"><defs id="SvgjsDefs1092"></defs><g id="SvgjsG1093" transform="scale(0.67649953618627)" opacity="1"><g id="SvgjsG1094" class="Pe1izSvb-" transform="translate(-0.7600520949741935, -7.105427357601002e-15) scale(1.0873439999999999)" light-content="false" non-strokable="false" fill="#ffffff"><path d="M44 0l43.301 25v50L44 100 .699 75V25z"></path></g><g id="SvgjsG1095" class="y8ziYoZ3UQ" transform="translate(14.462762543999995, 21.746879999999987) scale(0.6524063999999999)" light-content="true" non-strokable="false" fill="#7d0d96"><path d="M21.667 73.809V33.867l28.33-16.188 28.337 16.188V66.13L49.997 82.321 35 73.75V41.604l14.997-8.57L65 41.604v16.788l-15.003 8.571-1.663-.95v-16.67l8.382-4.792-6.719-3.838-8.33 4.763V69.88l8.33 4.762 21.67-12.383V37.737l-21.67-12.379-21.663 12.379v39.88L49.997 90 85 70V30L49.997 10 15 30v40z"></path></g><g id="SvgjsG1096" class="text" transform="translate(272.24616691905464, 58.89219877929686) scale(1)" light-content="false" fill="#ffffff"><path d="M-112.14 0L-112.14 -41.7L-121.98 -41.7L-121.98 -26.58C-121.98 -23.46 -121.85 -20.7 -121.59 -18.3C-121.33 -15.9 -120.96 -13.2 -120.48 -10.2L-131.4 -41.7L-145.08 -41.7L-145.08 0L-135.24 0L-135.24 -14.1C-135.24 -17.18 -135.35 -19.93 -135.57 -22.35C-135.79 -24.77 -136.1 -27.36 -136.5 -30.12L-136.68 -31.38L-126.12 0Z M-73.2 -41.7L-99.66 -41.7L-99.66 0L-73.38 0L-73.38 -7.86L-88.56 -7.86L-88.56 -17.34L-76.14 -17.34L-76.14 -24.96L-88.56 -24.96L-88.56 -33.84L-74.34 -33.84Z M-41.28 -22.44L-30.42 -41.7L-42.12 -41.7L-47.88 -29.04L-53.16 -41.7L-65.1 -41.7L-54.54 -22.14L-65.94 0L-54.18 0L-48 -15.06L-41.52 0L-29.46 0Z M7.74 -37.23C3.74 -40.21 -1.56 -41.7 -8.16 -41.7L-20.64 -41.7L-20.64 0L-7.32 0C6.72 0 13.74 -7 13.74 -21C13.74 -28.84 11.74 -34.25 7.74 -37.23ZM-9.54 -33.78L-6.72 -33.78C-4.72 -33.78 -3.07 -33.42 -1.77 -32.7C-0.47 -31.98 0.53 -30.69 1.23 -28.83C1.93 -26.97 2.28 -24.36 2.28 -21C2.28 -16.12 1.55 -12.72 0.09 -10.8C-1.37 -8.88 -3.62 -7.92 -6.66 -7.92L-9.54 -7.92Z M56.16 -41.7L44.4 -41.7L37.44 -24L30.54 -41.7L18.42 -41.7L31.74 -15.48L31.74 0L42.84 0L42.84 -15.54Z M97.68 0L97.68 -41.7L87.84 -41.7L87.84 -26.58C87.84 -23.46 87.97 -20.7 88.23 -18.3C88.49 -15.9 88.86 -13.2 89.34 -10.2L78.42 -41.7L64.74 -41.7L64.74 0L74.58 0L74.58 -14.1C74.58 -17.18 74.47 -19.93 74.25 -22.35C74.03 -24.77 73.72 -27.36 73.32 -30.12L73.14 -31.38L83.7 0Z M141.72 -37.02C138.36 -40.86 133.66 -42.78 127.62 -42.78C123.62 -42.78 120.19 -41.9 117.33 -40.14C114.47 -38.38 112.29 -35.86 110.79 -32.58C109.29 -29.3 108.54 -25.4 108.54 -20.88C108.54 -13.92 110.21 -8.52 113.55 -4.68C116.89 -0.84 121.58 1.08 127.62 1.08C131.62 1.08 135.06 0.2 137.94 -1.56C140.82 -3.32 143.01 -5.85 144.51 -9.15C146.01 -12.45 146.76 -16.36 146.76 -20.88C146.76 -27.8 145.08 -33.18 141.72 -37.02ZM121.89 -31.56C123.11 -33.72 125.02 -34.8 127.62 -34.8C130.26 -34.8 132.18 -33.72 133.38 -31.56C134.58 -29.4 135.18 -25.84 135.18 -20.88C135.18 -15.88 134.58 -12.3 133.38 -10.14C132.18 -7.98 130.26 -6.9 127.62 -6.9C125.06 -6.9 123.16 -7.99 121.92 -10.17C120.68 -12.35 120.06 -15.92 120.06 -20.88C120.06 -25.84 120.67 -29.4 121.89 -31.56Z"></path></g><g id="SvgjsG1097" class="text" transform="translate(285.1276213868281, 88.55219992370604) scale(1)" light-content="false" fill="#ffffff"><path d="M-157.92 -13.42L-154.56 -0.75C-154.43 -0.25 -154.19 0 -153.84 0L-152.62 0C-152.29 0 -152.06 -0.27 -151.92 -0.82L-149.57 -10.19C-149.45 -10.66 -149.37 -11.05 -149.32 -11.35C-149.26 -11.66 -149.22 -11.97 -149.18 -12.29L-149.16 -12.29C-149.12 -11.97 -149.08 -11.66 -149.02 -11.35C-148.97 -11.05 -148.89 -10.66 -148.77 -10.19L-146.42 -0.82C-146.28 -0.27 -146.05 0 -145.72 0L-144.5 0C-144.15 0 -143.91 -0.25 -143.78 -0.75L-140.42 -13.42C-140.32 -13.81 -140.4 -14 -140.67 -14L-141.87 -14C-142.07 -14 -142.21 -13.85 -142.29 -13.55L-144.46 -4.17C-144.55 -3.79 -144.66 -3.38 -144.77 -2.94C-144.88 -2.5 -144.98 -2.08 -145.07 -1.69L-145.12 -1.69C-145.18 -2.07 -145.26 -2.45 -145.35 -2.83C-145.43 -3.21 -145.53 -3.65 -145.64 -4.16L-147.87 -13.48C-147.96 -13.83 -148.16 -14 -148.5 -14L-149.84 -14C-150.18 -14 -150.38 -13.83 -150.47 -13.48L-152.7 -4.16C-152.81 -3.65 -152.91 -3.21 -152.99 -2.83C-153.08 -2.45 -153.16 -2.07 -153.22 -1.69L-153.27 -1.69C-153.36 -2.08 -153.46 -2.5 -153.57 -2.94C-153.68 -3.38 -153.79 -3.79 -153.88 -4.17L-156.05 -13.55C-156.13 -13.85 -156.27 -14 -156.47 -14L-157.67 -14C-157.94 -14 -158.02 -13.81 -157.92 -13.42Z M-138.28 0L-137.44 0C-137.15 0 -137 -0.15 -137 -0.44L-137 -5.8C-137 -7.02 -136.78 -7.89 -136.35 -8.39C-135.91 -8.9 -135.27 -9.15 -134.42 -9.15C-133.77 -9.15 -133.24 -8.98 -132.81 -8.64C-132.39 -8.3 -132.18 -7.49 -132.18 -6.21L-132.18 -0.44C-132.18 -0.15 -132.03 0 -131.74 0L-130.9 0C-130.61 0 -130.46 -0.15 -130.46 -0.44L-130.46 -6.68C-130.46 -7.84 -130.72 -8.75 -131.24 -9.42C-131.75 -10.09 -132.6 -10.42 -133.79 -10.42C-134.52 -10.42 -135.13 -10.31 -135.62 -10.08C-136.1 -9.85 -136.56 -9.5 -136.98 -9.03L-137.02 -9.03C-137.01 -9.23 -137 -9.42 -137 -9.62L-137 -13.97C-137 -14.27 -137.15 -14.41 -137.44 -14.41L-138.28 -14.41C-138.57 -14.41 -138.72 -14.27 -138.72 -13.97L-138.72 -0.44C-138.72 -0.15 -138.57 0 -138.28 0Z M-128.26 -5.13C-128.26 -3.51 -127.88 -2.23 -127.1 -1.27C-126.33 -0.31 -125.13 0.17 -123.51 0.17C-122.26 0.17 -121.34 -0.04 -120.76 -0.46C-120.17 -0.88 -119.82 -1.18 -119.7 -1.37C-119.55 -1.6 -119.55 -1.77 -119.7 -1.9L-120.27 -2.4C-120.47 -2.57 -120.67 -2.52 -120.88 -2.25C-121.07 -2 -121.36 -1.75 -121.77 -1.49C-122.17 -1.24 -122.75 -1.11 -123.51 -1.11C-124.22 -1.11 -124.86 -1.36 -125.43 -1.85C-126 -2.34 -126.33 -3.22 -126.45 -4.47L-119.64 -4.47C-119.37 -4.47 -119.24 -4.62 -119.24 -4.91C-119.24 -6.83 -119.65 -8.23 -120.47 -9.11C-121.3 -9.98 -122.33 -10.42 -123.58 -10.42C-125.09 -10.42 -126.24 -9.94 -127.05 -8.98C-127.86 -8.03 -128.26 -6.74 -128.26 -5.13ZM-126.48 -5.74C-126.39 -7.02 -126.07 -7.91 -125.55 -8.41C-125.02 -8.92 -124.38 -9.17 -123.62 -9.17C-122.76 -9.17 -122.11 -8.83 -121.67 -8.14C-121.23 -7.45 -120.99 -6.65 -120.97 -5.74Z M-116.54 0L-115.7 0C-115.41 0 -115.26 -0.15 -115.26 -0.44L-115.26 -5.31C-115.26 -6.5 -115.02 -7.43 -114.52 -8.12C-114.03 -8.81 -113.4 -9.15 -112.64 -9.15C-112.43 -9.15 -112.22 -9.13 -111.99 -9.08C-111.86 -9.06 -111.77 -9.1 -111.74 -9.22L-111.51 -10.02C-111.47 -10.16 -111.53 -10.25 -111.68 -10.31C-111.85 -10.38 -112.14 -10.42 -112.56 -10.42C-113.19 -10.42 -113.72 -10.27 -114.14 -9.97C-114.56 -9.67 -114.93 -9.23 -115.24 -8.64L-115.28 -8.64L-115.28 -9.81C-115.28 -10.11 -115.43 -10.25 -115.72 -10.25L-116.54 -10.25C-116.84 -10.25 -116.98 -10.11 -116.98 -9.81L-116.98 -0.44C-116.98 -0.15 -116.84 0 -116.54 0Z M-110.49 -5.13C-110.49 -3.51 -110.1 -2.23 -109.33 -1.27C-108.56 -0.31 -107.36 0.17 -105.73 0.17C-104.48 0.17 -103.57 -0.04 -102.98 -0.46C-102.4 -0.88 -102.05 -1.18 -101.92 -1.37C-101.77 -1.6 -101.77 -1.77 -101.92 -1.9L-102.5 -2.4C-102.7 -2.57 -102.9 -2.52 -103.11 -2.25C-103.29 -2 -103.59 -1.75 -103.99 -1.49C-104.4 -1.24 -104.98 -1.11 -105.73 -1.11C-106.45 -1.11 -107.09 -1.36 -107.66 -1.85C-108.22 -2.34 -108.56 -3.22 -108.67 -4.47L-101.87 -4.47C-101.6 -4.47 -101.46 -4.62 -101.46 -4.91C-101.46 -6.83 -101.88 -8.23 -102.7 -9.11C-103.52 -9.98 -104.56 -10.42 -105.81 -10.42C-107.31 -10.42 -108.47 -9.94 -109.28 -8.98C-110.08 -8.03 -110.49 -6.74 -110.49 -5.13ZM-108.71 -5.74C-108.61 -7.02 -108.3 -7.91 -107.77 -8.41C-107.25 -8.92 -106.6 -9.17 -105.85 -9.17C-104.99 -9.17 -104.34 -8.83 -103.9 -8.14C-103.45 -7.45 -103.22 -6.65 -103.19 -5.74Z M-93.04 -7C-93.04 -4.72 -92.47 -2.94 -91.34 -1.65C-90.21 -0.35 -88.59 0.29 -86.47 0.29C-85.16 0.29 -84.07 0.04 -83.2 -0.45C-82.34 -0.95 -81.71 -1.58 -81.33 -2.32C-81.13 -2.71 -81.15 -2.97 -81.39 -3.11L-82.2 -3.56C-82.46 -3.71 -82.7 -3.6 -82.9 -3.22C-83.15 -2.75 -83.56 -2.3 -84.13 -1.87C-84.69 -1.45 -85.44 -1.23 -86.38 -1.23C-88 -1.23 -89.19 -1.74 -89.93 -2.75C-90.67 -3.76 -91.04 -5.18 -91.04 -7C-91.04 -8.82 -90.67 -10.24 -89.93 -11.25C-89.19 -12.27 -88 -12.77 -86.38 -12.77C-85.47 -12.77 -84.77 -12.59 -84.28 -12.24C-83.79 -11.88 -83.44 -11.49 -83.22 -11.08C-83.02 -10.69 -82.79 -10.56 -82.53 -10.71L-81.76 -11.16C-81.52 -11.31 -81.49 -11.57 -81.67 -11.94C-82.02 -12.67 -82.6 -13.25 -83.41 -13.67C-84.22 -14.09 -85.24 -14.3 -86.47 -14.3C-88.59 -14.3 -90.21 -13.65 -91.34 -12.36C-92.47 -11.07 -93.04 -9.28 -93.04 -7Z M-78.42 0L-77.58 0C-77.29 0 -77.14 -0.15 -77.14 -0.44L-77.14 -5.31C-77.14 -6.5 -76.89 -7.43 -76.4 -8.12C-75.9 -8.81 -75.27 -9.15 -74.51 -9.15C-74.31 -9.15 -74.1 -9.13 -73.87 -9.08C-73.73 -9.06 -73.65 -9.1 -73.61 -9.22L-73.39 -10.02C-73.35 -10.16 -73.4 -10.25 -73.55 -10.31C-73.72 -10.38 -74.02 -10.42 -74.43 -10.42C-75.07 -10.42 -75.59 -10.27 -76.02 -9.97C-76.44 -9.67 -76.81 -9.23 -77.12 -8.64L-77.16 -8.64L-77.16 -9.81C-77.16 -10.11 -77.3 -10.25 -77.6 -10.25L-78.42 -10.25C-78.71 -10.25 -78.86 -10.11 -78.86 -9.81L-78.86 -0.44C-78.86 -0.15 -78.71 0 -78.42 0Z M-72.36 -5.13C-72.36 -3.51 -71.98 -2.23 -71.21 -1.27C-70.43 -0.31 -69.24 0.17 -67.61 0.17C-66.36 0.17 -65.44 -0.04 -64.86 -0.46C-64.28 -0.88 -63.92 -1.18 -63.8 -1.37C-63.65 -1.6 -63.65 -1.77 -63.8 -1.9L-64.37 -2.4C-64.57 -2.57 -64.77 -2.52 -64.98 -2.25C-65.17 -2 -65.47 -1.75 -65.87 -1.49C-66.27 -1.24 -66.85 -1.11 -67.61 -1.11C-68.32 -1.11 -68.96 -1.36 -69.53 -1.85C-70.1 -2.34 -70.44 -3.22 -70.55 -4.47L-63.74 -4.47C-63.47 -4.47 -63.34 -4.62 -63.34 -4.91C-63.34 -6.83 -63.75 -8.23 -64.58 -9.11C-65.4 -9.98 -66.44 -10.42 -67.69 -10.42C-69.19 -10.42 -70.35 -9.94 -71.15 -8.98C-71.96 -8.03 -72.36 -6.74 -72.36 -5.13ZM-70.59 -5.74C-70.49 -7.02 -70.18 -7.91 -69.65 -8.41C-69.12 -8.92 -68.48 -9.17 -67.72 -9.17C-66.87 -9.17 -66.21 -8.83 -65.77 -8.14C-65.33 -7.45 -65.09 -6.65 -65.07 -5.74Z M-61.64 -2.73C-61.64 -1.82 -61.35 -1.11 -60.78 -0.6C-60.2 -0.09 -59.38 0.17 -58.31 0.17C-57.71 0.17 -57.16 0.09 -56.67 -0.07C-56.17 -0.23 -55.67 -0.51 -55.16 -0.92L-55.14 -0.92L-55.14 -0.44C-55.14 -0.15 -55.01 0 -54.76 0L-53.88 0C-53.58 0 -53.44 -0.15 -53.44 -0.44L-53.44 -6.49C-53.44 -7.71 -53.73 -8.67 -54.31 -9.37C-54.89 -10.07 -55.86 -10.42 -57.22 -10.42C-57.72 -10.42 -58.21 -10.36 -58.7 -10.25C-59.18 -10.14 -59.59 -10 -59.91 -9.83C-60.24 -9.67 -60.57 -9.43 -60.92 -9.1C-61.16 -8.87 -61.21 -8.68 -61.06 -8.52L-60.56 -7.93C-60.4 -7.75 -60.23 -7.76 -60.06 -7.96C-59.82 -8.22 -59.58 -8.43 -59.32 -8.6C-59.06 -8.76 -58.78 -8.9 -58.47 -9C-58.15 -9.1 -57.74 -9.15 -57.22 -9.15C-56.4 -9.15 -55.85 -8.93 -55.57 -8.48C-55.29 -8.04 -55.16 -7.51 -55.16 -6.89L-55.16 -6.23C-57.31 -6.14 -58.93 -5.82 -60.01 -5.28C-61.1 -4.74 -61.64 -3.89 -61.64 -2.73ZM-59.86 -2.7C-59.86 -3.14 -59.69 -3.53 -59.34 -3.87C-58.98 -4.21 -58.53 -4.45 -57.97 -4.59C-57.41 -4.73 -56.47 -4.85 -55.16 -4.95L-55.16 -2.07C-55.63 -1.65 -56.09 -1.4 -56.54 -1.3C-56.99 -1.2 -57.47 -1.15 -57.97 -1.15C-58.29 -1.15 -58.61 -1.19 -58.91 -1.25C-59.21 -1.32 -59.44 -1.48 -59.61 -1.72C-59.78 -1.97 -59.86 -2.29 -59.86 -2.7Z M-51.16 -8.96L-50.01 -8.96L-50.01 -2.64C-50.01 -1.74 -49.83 -1.05 -49.47 -0.57C-49.11 -0.08 -48.59 0.17 -47.91 0.17C-47.42 0.17 -46.93 0.1 -46.45 -0.04C-45.96 -0.18 -45.59 -0.33 -45.33 -0.48C-45.2 -0.56 -45.16 -0.66 -45.21 -0.79L-45.54 -1.54C-45.6 -1.69 -45.69 -1.72 -45.81 -1.63C-45.93 -1.54 -46.14 -1.43 -46.45 -1.3C-46.76 -1.17 -47.02 -1.1 -47.25 -1.1C-47.53 -1.1 -47.78 -1.21 -47.98 -1.41C-48.19 -1.62 -48.29 -2.06 -48.29 -2.74L-48.29 -8.96L-46.21 -8.96C-45.92 -8.96 -45.77 -9.08 -45.77 -9.31L-45.77 -9.91C-45.77 -10.14 -45.92 -10.25 -46.21 -10.25L-48.29 -10.25L-48.29 -12.74C-48.29 -12.97 -48.39 -13.09 -48.58 -13.09L-48.93 -13.09C-49 -13.09 -49.1 -12.97 -49.23 -12.74L-49.91 -11.5C-49.98 -11.39 -50.01 -11.26 -50.01 -11.13L-50.01 -10.25L-51.16 -10.25C-51.46 -10.25 -51.6 -10.14 -51.6 -9.91L-51.6 -9.31C-51.6 -9.08 -51.46 -8.96 -51.16 -8.96Z M-42.83 0L-41.99 0C-41.7 0 -41.55 -0.15 -41.55 -0.44L-41.55 -9.81C-41.55 -10.11 -41.7 -10.25 -41.99 -10.25L-42.83 -10.25C-43.12 -10.25 -43.27 -10.11 -43.27 -9.81L-43.27 -0.44C-43.27 -0.15 -43.12 0 -42.83 0ZM-42.83 -12.11L-41.99 -12.11C-41.7 -12.11 -41.55 -12.26 -41.55 -12.55L-41.55 -13.39C-41.55 -13.68 -41.7 -13.83 -41.99 -13.83L-42.83 -13.83C-43.12 -13.83 -43.27 -13.68 -43.27 -13.39L-43.27 -12.55C-43.27 -12.26 -43.12 -12.11 -42.83 -12.11Z M-39.56 -9.78L-36.36 -0.6C-36.22 -0.2 -36.04 0 -35.83 0L-34.54 0C-34.33 0 -34.15 -0.2 -34.01 -0.6L-30.81 -9.78C-30.7 -10.09 -30.79 -10.25 -31.07 -10.25L-32.14 -10.25C-32.35 -10.25 -32.49 -10.13 -32.58 -9.87L-34.65 -3.43C-34.82 -2.9 -34.93 -2.54 -35 -2.34C-35.06 -2.14 -35.11 -1.89 -35.17 -1.6L-35.21 -1.6C-35.26 -1.89 -35.31 -2.14 -35.38 -2.34C-35.44 -2.54 -35.55 -2.9 -35.72 -3.43L-37.79 -9.87C-37.88 -10.13 -38.02 -10.25 -38.23 -10.25L-39.3 -10.25C-39.58 -10.25 -39.67 -10.09 -39.56 -9.78Z M-28.71 0L-27.87 0C-27.58 0 -27.43 -0.15 -27.43 -0.44L-27.43 -9.81C-27.43 -10.11 -27.58 -10.25 -27.87 -10.25L-28.71 -10.25C-29 -10.25 -29.15 -10.11 -29.15 -9.81L-29.15 -0.44C-29.15 -0.15 -29 0 -28.71 0ZM-28.71 -12.11L-27.87 -12.11C-27.58 -12.11 -27.43 -12.26 -27.43 -12.55L-27.43 -13.39C-27.43 -13.68 -27.58 -13.83 -27.87 -13.83L-28.71 -13.83C-29 -13.83 -29.15 -13.68 -29.15 -13.39L-29.15 -12.55C-29.15 -12.26 -29 -12.11 -28.71 -12.11Z M-25.16 -8.96L-24 -8.96L-24 -2.64C-24 -1.74 -23.82 -1.05 -23.46 -0.57C-23.1 -0.08 -22.58 0.17 -21.9 0.17C-21.42 0.17 -20.93 0.1 -20.44 -0.04C-19.95 -0.18 -19.58 -0.33 -19.33 -0.48C-19.2 -0.56 -19.16 -0.66 -19.21 -0.79L-19.53 -1.54C-19.6 -1.69 -19.69 -1.72 -19.8 -1.63C-19.92 -1.54 -20.14 -1.43 -20.44 -1.3C-20.75 -1.17 -21.02 -1.1 -21.24 -1.1C-21.53 -1.1 -21.77 -1.21 -21.98 -1.41C-22.18 -1.62 -22.29 -2.06 -22.29 -2.74L-22.29 -8.96L-20.21 -8.96C-19.91 -8.96 -19.77 -9.08 -19.77 -9.31L-19.77 -9.91C-19.77 -10.14 -19.91 -10.25 -20.21 -10.25L-22.29 -10.25L-22.29 -12.74C-22.29 -12.97 -22.38 -13.09 -22.58 -13.09L-22.92 -13.09C-23 -13.09 -23.1 -12.97 -23.22 -12.74L-23.91 -11.5C-23.97 -11.39 -24 -11.26 -24 -11.13L-24 -10.25L-25.16 -10.25C-25.45 -10.25 -25.6 -10.14 -25.6 -9.91L-25.6 -9.31C-25.6 -9.08 -25.45 -8.96 -25.16 -8.96Z M-17.98 -9.78L-14.45 0.01L-14.65 0.59C-14.82 1.08 -15.05 1.57 -15.33 2.07C-15.62 2.56 -15.99 2.8 -16.45 2.8C-16.69 2.8 -16.95 2.75 -17.22 2.64C-17.35 2.58 -17.43 2.62 -17.48 2.75L-17.73 3.54C-17.78 3.68 -17.73 3.78 -17.6 3.85C-17.3 4 -16.89 4.07 -16.39 4.07C-15.42 4.07 -14.69 3.73 -14.2 3.03C-13.71 2.34 -13.16 1.13 -12.54 -0.6L-9.25 -9.78C-9.13 -10.09 -9.22 -10.25 -9.51 -10.25L-10.58 -10.25C-10.78 -10.25 -10.93 -10.13 -11.02 -9.87L-13.09 -3.43C-13.24 -2.98 -13.35 -2.64 -13.42 -2.4C-13.5 -2.16 -13.56 -1.89 -13.61 -1.6L-13.63 -1.6C-13.68 -1.89 -13.77 -2.23 -13.89 -2.6C-14.01 -2.98 -14.1 -3.25 -14.16 -3.43L-16.21 -9.87C-16.29 -10.13 -16.44 -10.25 -16.65 -10.25L-17.71 -10.25C-18.01 -10.25 -18.1 -10.09 -17.98 -9.78Z M-0.18 0L0.72 0C1.05 0 1.21 -0.18 1.21 -0.54L1.21 -10.78C1.21 -11.04 1.2 -11.3 1.19 -11.56L1.23 -11.56L4.83 -0.6C4.96 -0.2 5.18 0 5.48 0L6.55 0C6.85 0 7.07 -0.2 7.2 -0.6L10.8 -11.56L10.84 -11.56C10.83 -11.3 10.82 -11.04 10.82 -10.78L10.82 -0.54C10.82 -0.18 10.98 0 11.31 0L12.21 0C12.53 0 12.7 -0.18 12.7 -0.54L12.7 -13.47C12.7 -13.82 12.53 -14 12.21 -14L10.13 -14C9.88 -14 9.69 -13.81 9.57 -13.42L6.78 -4.66C6.49 -3.76 6.32 -3.22 6.27 -3.03C6.22 -2.85 6.14 -2.51 6.04 -2.01L5.99 -2.01C5.89 -2.51 5.81 -2.85 5.76 -3.03C5.71 -3.22 5.54 -3.76 5.25 -4.66L2.46 -13.42C2.34 -13.81 2.15 -14 1.9 -14L-0.18 -14C-0.5 -14 -0.66 -13.82 -0.66 -13.47L-0.66 -0.54C-0.66 -0.18 -0.5 0 -0.18 0Z M15.19 -5.13C15.19 -3.51 15.57 -2.23 16.34 -1.27C17.11 -0.31 18.31 0.17 19.94 0.17C21.19 0.17 22.11 -0.04 22.69 -0.46C23.27 -0.88 23.63 -1.18 23.75 -1.37C23.9 -1.6 23.9 -1.77 23.75 -1.9L23.17 -2.4C22.98 -2.57 22.78 -2.52 22.57 -2.25C22.38 -2 22.08 -1.75 21.68 -1.49C21.28 -1.24 20.7 -1.11 19.94 -1.11C19.23 -1.11 18.58 -1.36 18.02 -1.85C17.45 -2.34 17.11 -3.22 17 -4.47L23.81 -4.47C24.08 -4.47 24.21 -4.62 24.21 -4.91C24.21 -6.83 23.8 -8.23 22.97 -9.11C22.15 -9.98 21.11 -10.42 19.86 -10.42C18.36 -10.42 17.2 -9.94 16.4 -8.98C15.59 -8.03 15.19 -6.74 15.19 -5.13ZM16.96 -5.74C17.06 -7.02 17.37 -7.91 17.9 -8.41C18.43 -8.92 19.07 -9.17 19.82 -9.17C20.68 -9.17 21.33 -8.83 21.78 -8.14C22.22 -7.45 22.45 -6.65 22.48 -5.74Z M25.91 -5.13C25.91 -3.51 26.29 -2.23 27.07 -1.27C27.84 -0.31 29.04 0.17 30.66 0.17C31.91 0.17 32.83 -0.04 33.41 -0.46C34 -0.88 34.35 -1.18 34.47 -1.37C34.62 -1.6 34.62 -1.77 34.47 -1.9L33.9 -2.4C33.7 -2.57 33.5 -2.52 33.29 -2.25C33.1 -2 32.81 -1.75 32.4 -1.49C32 -1.24 31.42 -1.11 30.66 -1.11C29.95 -1.11 29.31 -1.36 28.74 -1.85C28.17 -2.34 27.84 -3.22 27.72 -4.47L34.53 -4.47C34.8 -4.47 34.93 -4.62 34.93 -4.91C34.93 -6.83 34.52 -8.23 33.7 -9.11C32.87 -9.98 31.84 -10.42 30.59 -10.42C29.08 -10.42 27.93 -9.94 27.12 -8.98C26.31 -8.03 25.91 -6.74 25.91 -5.13ZM27.69 -5.74C27.78 -7.02 28.1 -7.91 28.62 -8.41C29.15 -8.92 29.79 -9.17 30.55 -9.17C31.41 -9.17 32.06 -8.83 32.5 -8.14C32.94 -7.45 33.18 -6.65 33.2 -5.74Z M36.69 -8.96L37.84 -8.96L37.84 -2.64C37.84 -1.74 38.02 -1.05 38.38 -0.57C38.75 -0.08 39.26 0.17 39.94 0.17C40.43 0.17 40.92 0.1 41.41 -0.04C41.89 -0.18 42.27 -0.33 42.52 -0.48C42.65 -0.56 42.69 -0.66 42.64 -0.79L42.31 -1.54C42.25 -1.69 42.16 -1.72 42.04 -1.63C41.92 -1.54 41.71 -1.43 41.4 -1.3C41.09 -1.17 40.83 -1.1 40.61 -1.1C40.32 -1.1 40.07 -1.21 39.87 -1.41C39.66 -1.62 39.56 -2.06 39.56 -2.74L39.56 -8.96L41.64 -8.96C41.93 -8.96 42.08 -9.08 42.08 -9.31L42.08 -9.91C42.08 -10.14 41.93 -10.25 41.64 -10.25L39.56 -10.25L39.56 -12.74C39.56 -12.97 39.46 -13.09 39.27 -13.09L38.93 -13.09C38.85 -13.09 38.75 -12.97 38.62 -12.74L37.94 -11.5C37.87 -11.39 37.84 -11.26 37.84 -11.13L37.84 -10.25L36.69 -10.25C36.4 -10.25 36.25 -10.14 36.25 -9.91L36.25 -9.31C36.25 -9.08 36.4 -8.96 36.69 -8.96Z M44.18 -0.96C44.38 -0.76 44.83 -0.53 45.52 -0.25C46.22 0.03 47.05 0.17 48.02 0.17C48.73 0.17 49.35 0.09 49.85 -0.07C50.36 -0.23 50.82 -0.55 51.24 -1.04C51.65 -1.52 51.86 -2.11 51.86 -2.8C51.86 -3.18 51.81 -3.52 51.71 -3.83C51.61 -4.14 51.43 -4.43 51.18 -4.7C50.92 -4.96 50.55 -5.21 50.08 -5.43C49.71 -5.6 49.31 -5.74 48.85 -5.86C48.4 -5.98 47.9 -6.11 47.35 -6.25C47 -6.34 46.73 -6.46 46.53 -6.61C46.34 -6.76 46.2 -6.93 46.13 -7.1C46.06 -7.28 46.03 -7.49 46.03 -7.71C46.03 -8.01 46.12 -8.27 46.3 -8.5C46.48 -8.72 46.72 -8.87 47.01 -8.96C47.3 -9.06 47.66 -9.1 48.07 -9.1C48.4 -9.1 48.79 -9.03 49.23 -8.88C49.67 -8.73 50.01 -8.57 50.25 -8.4C50.54 -8.2 50.75 -8.19 50.89 -8.38L51.33 -8.96C51.48 -9.16 51.45 -9.33 51.24 -9.48C50.88 -9.74 50.46 -9.96 49.97 -10.14C49.47 -10.33 48.82 -10.42 48.02 -10.42C47.47 -10.42 46.91 -10.34 46.33 -10.17C45.75 -10 45.27 -9.69 44.88 -9.24C44.5 -8.78 44.31 -8.24 44.31 -7.61C44.31 -6.99 44.43 -6.5 44.66 -6.15C44.9 -5.8 45.18 -5.52 45.5 -5.32C45.82 -5.11 46.16 -4.95 46.51 -4.84C47.05 -4.67 47.48 -4.55 47.81 -4.47C48.14 -4.39 48.47 -4.28 48.8 -4.16C49 -4.09 49.21 -3.99 49.42 -3.86C49.63 -3.74 49.79 -3.57 49.89 -3.36C49.99 -3.15 50.04 -2.93 50.04 -2.7C50.04 -2.29 49.93 -1.97 49.72 -1.73C49.51 -1.49 49.26 -1.32 48.98 -1.24C48.7 -1.15 48.39 -1.1 48.03 -1.1C47.42 -1.1 46.88 -1.19 46.41 -1.37C45.94 -1.54 45.51 -1.78 45.13 -2.07C44.85 -2.29 44.64 -2.29 44.49 -2.1L44.05 -1.48C43.94 -1.32 43.98 -1.15 44.18 -0.96Z M59.96 -12.32L64.19 -12.32L64.19 -0.54C64.19 -0.18 64.35 0 64.68 0L65.58 0C65.9 0 66.06 -0.18 66.06 -0.54L66.06 -12.32L70.29 -12.32C70.65 -12.32 70.83 -12.47 70.83 -12.76L70.83 -13.56C70.83 -13.86 70.65 -14 70.29 -14L59.96 -14C59.6 -14 59.42 -13.86 59.42 -13.56L59.42 -12.76C59.42 -12.47 59.6 -12.32 59.96 -12.32Z M69.09 -5.13C69.09 -3.51 69.48 -2.23 70.25 -1.27C71.02 -0.31 72.22 0.17 73.85 0.17C75.1 0.17 76.01 -0.04 76.6 -0.46C77.18 -0.88 77.53 -1.18 77.66 -1.37C77.81 -1.6 77.81 -1.77 77.66 -1.9L77.08 -2.4C76.88 -2.57 76.68 -2.52 76.47 -2.25C76.29 -2 75.99 -1.75 75.59 -1.49C75.18 -1.24 74.6 -1.11 73.85 -1.11C73.13 -1.11 72.49 -1.36 71.92 -1.85C71.36 -2.34 71.02 -3.22 70.91 -4.47L77.71 -4.47C77.98 -4.47 78.12 -4.62 78.12 -4.91C78.12 -6.83 77.7 -8.23 76.88 -9.11C76.06 -9.98 75.02 -10.42 73.77 -10.42C72.27 -10.42 71.11 -9.94 70.3 -8.98C69.5 -8.03 69.09 -6.74 69.09 -5.13ZM70.87 -5.74C70.97 -7.02 71.28 -7.91 71.81 -8.41C72.33 -8.92 72.98 -9.17 73.73 -9.17C74.59 -9.17 75.24 -8.83 75.68 -8.14C76.13 -7.45 76.36 -6.65 76.39 -5.74Z M79.81 -5.13C79.81 -3.6 80.19 -2.33 80.95 -1.33C81.71 -0.33 82.87 0.17 84.43 0.17C85.66 0.17 86.57 -0.09 87.14 -0.59C87.72 -1.1 88.09 -1.49 88.25 -1.77C88.39 -2 88.36 -2.18 88.16 -2.29L87.51 -2.69C87.29 -2.82 87.1 -2.73 86.93 -2.42C86.76 -2.1 86.48 -1.8 86.09 -1.52C85.71 -1.24 85.16 -1.1 84.43 -1.1C83.54 -1.1 82.85 -1.43 82.36 -2.09C81.88 -2.75 81.63 -3.76 81.63 -5.13C81.63 -6.49 81.88 -7.51 82.36 -8.16C82.85 -8.82 83.54 -9.15 84.43 -9.15C85.12 -9.15 85.63 -9.04 85.97 -8.83C86.31 -8.61 86.58 -8.36 86.77 -8.06C86.96 -7.74 87.16 -7.66 87.35 -7.79L87.97 -8.19C88.16 -8.32 88.19 -8.5 88.06 -8.71C87.81 -9.1 87.41 -9.48 86.85 -9.86C86.29 -10.23 85.49 -10.42 84.43 -10.42C82.87 -10.42 81.71 -9.92 80.95 -8.92C80.19 -7.92 79.81 -6.66 79.81 -5.13Z M90.83 0L91.67 0C91.96 0 92.11 -0.15 92.11 -0.44L92.11 -5.8C92.11 -7.02 92.33 -7.89 92.76 -8.39C93.2 -8.9 93.84 -9.15 94.69 -9.15C95.34 -9.15 95.88 -8.98 96.3 -8.64C96.72 -8.3 96.93 -7.49 96.93 -6.21L96.93 -0.44C96.93 -0.15 97.08 0 97.37 0L98.21 0C98.51 0 98.65 -0.15 98.65 -0.44L98.65 -6.68C98.65 -7.84 98.39 -8.75 97.88 -9.42C97.36 -10.09 96.51 -10.42 95.32 -10.42C94.59 -10.42 93.98 -10.31 93.5 -10.08C93.01 -9.85 92.55 -9.5 92.13 -9.03L92.09 -9.03C92.1 -9.23 92.11 -9.42 92.11 -9.62L92.11 -13.97C92.11 -14.27 91.96 -14.41 91.67 -14.41L90.83 -14.41C90.54 -14.41 90.39 -14.27 90.39 -13.97L90.39 -0.44C90.39 -0.15 90.54 0 90.83 0Z M101.85 0L102.69 0C102.98 0 103.13 -0.15 103.13 -0.44L103.13 -5.8C103.13 -7.02 103.34 -7.89 103.78 -8.39C104.22 -8.9 104.86 -9.15 105.7 -9.15C106.35 -9.15 106.89 -8.98 107.31 -8.64C107.74 -8.3 107.95 -7.49 107.95 -6.21L107.95 -0.44C107.95 -0.15 108.1 0 108.39 0L109.23 0C109.52 0 109.67 -0.15 109.67 -0.44L109.67 -6.68C109.67 -7.84 109.41 -8.75 108.89 -9.42C108.37 -10.09 107.52 -10.42 106.34 -10.42C105.61 -10.42 105 -10.31 104.51 -10.08C104.02 -9.85 103.57 -9.5 103.14 -9.03L103.11 -9.03L103.11 -9.81C103.11 -10.11 102.96 -10.25 102.67 -10.25L101.85 -10.25C101.55 -10.25 101.41 -10.11 101.41 -9.81L101.41 -0.44C101.41 -0.15 101.55 0 101.85 0Z M111.87 -5.13C111.87 -3.6 112.27 -2.33 113.08 -1.33C113.89 -0.33 115.08 0.17 116.64 0.17C118.2 0.17 119.39 -0.33 120.2 -1.33C121.01 -2.33 121.42 -3.6 121.42 -5.13C121.42 -6.66 121.01 -7.92 120.2 -8.92C119.39 -9.92 118.2 -10.42 116.64 -10.42C115.08 -10.42 113.89 -9.92 113.08 -8.92C112.27 -7.92 111.87 -6.66 111.87 -5.13ZM113.68 -5.13C113.68 -6.49 113.95 -7.51 114.49 -8.16C115.03 -8.82 115.75 -9.15 116.64 -9.15C117.53 -9.15 118.25 -8.82 118.79 -8.16C119.33 -7.51 119.6 -6.49 119.6 -5.13C119.6 -3.76 119.33 -2.75 118.79 -2.09C118.25 -1.43 117.53 -1.1 116.64 -1.1C115.75 -1.1 115.03 -1.43 114.49 -2.09C113.95 -2.75 113.68 -3.76 113.68 -5.13Z M124.07 0L124.91 0C125.21 0 125.35 -0.15 125.35 -0.44L125.35 -14.24C125.35 -14.47 125.25 -14.58 125.06 -14.58L124.72 -14.58C124.64 -14.58 124.54 -14.47 124.41 -14.24L123.73 -13C123.67 -12.88 123.63 -12.76 123.63 -12.63L123.63 -0.44C123.63 -0.15 123.78 0 124.07 0Z M127.57 -5.13C127.57 -3.6 127.97 -2.33 128.78 -1.33C129.59 -0.33 130.78 0.17 132.34 0.17C133.91 0.17 135.09 -0.33 135.9 -1.33C136.71 -2.33 137.12 -3.6 137.12 -5.13C137.12 -6.66 136.71 -7.92 135.9 -8.92C135.09 -9.92 133.91 -10.42 132.34 -10.42C130.78 -10.42 129.59 -9.92 128.78 -8.92C127.97 -7.92 127.57 -6.66 127.57 -5.13ZM129.38 -5.13C129.38 -6.49 129.65 -7.51 130.2 -8.16C130.74 -8.82 131.45 -9.15 132.34 -9.15C133.24 -9.15 133.95 -8.82 134.49 -8.16C135.03 -7.51 135.3 -6.49 135.3 -5.13C135.3 -3.76 135.03 -2.75 134.49 -2.09C133.95 -1.43 133.24 -1.1 132.34 -1.1C131.45 -1.1 130.74 -1.43 130.2 -2.09C129.65 -2.75 129.38 -3.76 129.38 -5.13Z M138.78 -5.13C138.78 -3.73 139.12 -2.5 139.79 -1.43C140.47 -0.37 141.46 0.17 142.76 0.17C143.51 0.17 144.12 0.04 144.58 -0.22C145.03 -0.49 145.43 -0.84 145.77 -1.29L145.79 -1.29C145.78 -1.09 145.77 -0.9 145.77 -0.69L145.77 -0.11C145.77 1.08 145.57 1.86 145.16 2.24C144.75 2.61 144.11 2.8 143.22 2.8C142.44 2.8 141.89 2.74 141.57 2.6C141.25 2.47 140.92 2.25 140.58 1.93C140.31 1.7 140.1 1.65 139.95 1.8L139.41 2.32C139.26 2.47 139.27 2.66 139.44 2.87C139.68 3.16 140.09 3.43 140.65 3.69C141.22 3.94 142.07 4.07 143.21 4.07C144.91 4.07 146.05 3.72 146.63 3.01C147.2 2.31 147.49 1.33 147.49 0.08L147.49 -9.81C147.49 -10.11 147.34 -10.25 147.05 -10.25L146.23 -10.25C146 -10.25 145.87 -10.11 145.85 -9.81L145.79 -9.03L145.77 -9.03C145.41 -9.46 145.01 -9.8 144.56 -10.05C144.11 -10.3 143.51 -10.42 142.76 -10.42C141.46 -10.42 140.47 -9.89 139.79 -8.82C139.12 -7.76 138.78 -6.53 138.78 -5.13ZM140.6 -5.13C140.6 -6.32 140.8 -7.29 141.22 -8.04C141.63 -8.78 142.33 -9.15 143.32 -9.15C144.02 -9.15 144.61 -8.91 145.07 -8.43C145.54 -7.95 145.77 -7.23 145.77 -6.25L145.77 -4C145.77 -3.03 145.54 -2.3 145.07 -1.82C144.61 -1.34 144.02 -1.1 143.32 -1.1C142.33 -1.1 141.63 -1.47 141.22 -2.22C140.8 -2.96 140.6 -3.93 140.6 -5.13Z M149.55 -9.78L153.08 0.01L152.88 0.59C152.71 1.08 152.48 1.57 152.2 2.07C151.91 2.56 151.54 2.8 151.08 2.8C150.84 2.8 150.58 2.75 150.31 2.64C150.18 2.58 150.09 2.62 150.05 2.75L149.79 3.54C149.75 3.68 149.79 3.78 149.93 3.85C150.23 4 150.63 4.07 151.14 4.07C152.11 4.07 152.84 3.73 153.33 3.03C153.82 2.34 154.37 1.13 154.99 -0.6L158.28 -9.78C158.4 -10.09 158.31 -10.25 158.02 -10.25L156.95 -10.25C156.74 -10.25 156.6 -10.13 156.51 -9.87L154.44 -3.43C154.29 -2.98 154.18 -2.64 154.11 -2.4C154.03 -2.16 153.97 -1.89 153.92 -1.6L153.9 -1.6C153.84 -1.89 153.76 -2.23 153.64 -2.6C153.52 -2.98 153.43 -3.25 153.37 -3.43L151.32 -9.87C151.24 -10.13 151.09 -10.25 150.88 -10.25L149.81 -10.25C149.52 -10.25 149.43 -10.09 149.55 -9.78Z"></path></g></g></svg>